<?xml version="1.0" encoding="utf-8"?>
<!-- Generator: Adobe Illustrator 22.0.0, SVG Export Plug-In . SVG Version: 6.00 Build 0)  -->
<svg version="1.1" id="Layer_1" xmlns="http://www.w3.org/2000/svg" xmlns:xlink="http://www.w3.org/1999/xlink" x="0px" y="0px"
	 viewBox="0 0 434 227" style="enable-background:new 0 0 434 227;" xml:space="preserve">
<style type="text/css">
	.st0{fill:#FF8000;}
	.st1{fill:#333333;}
	.st2{fill:#FFFFFF;}
</style>
<g>
	<path class="st0" d="M177.7,131.9c4.1,3.7,9.4,5.5,16,5.5c7.1,0,13.2-2.5,18.2-7.5c0.7-0.7,1.5-1.6,2.5-2.8l8.4,3
		c-1.8,2.6-3.4,4.5-4.8,5.9c-6.7,6.7-14.8,10.1-24.3,10.1s-17.5-3.4-24.2-10.1c-6.7-6.7-10.1-14.8-10.1-24.3s3.4-17.5,10.1-24.2
		c6.7-6.7,14.8-10.1,24.2-10.1c8.1,0,15.2,2.4,21.3,7.3c1,0.8,2,1.7,3,2.7c0.3,0.4,1,1.1,2,2.1l-5,5L177.7,131.9z M207.8,90.2
		c-3.6-2.7-8.3-4.1-14.1-4.1c-7.1,0-13.1,2.5-18.2,7.5c-5,5-7.5,11.1-7.5,18.2c0,5.9,1.4,10.6,4.1,14.1L207.8,90.2z"/>
	<path class="st0" d="M238.4,45.8h8.3v42.3c7.3-7.1,15.7-10.6,25.2-10.6s17.6,3.4,24.3,10.1c6.7,6.7,10,14.8,10,24.3
		s-3.3,17.5-10,24.2s-14.8,10.1-24.3,10.1s-17.9-3.6-25.2-10.7v9h-8.3V45.8z M246.7,106.3v11c1,4.7,3.3,9,7,12.7
		c5,5,11.1,7.5,18.2,7.5s13.2-2.5,18.2-7.5s7.5-11,7.5-18.2c0-7.1-2.5-13.2-7.5-18.2s-11.1-7.5-18.2-7.5s-13.2,2.5-18.2,7.5
		C250,97.3,247.6,101.5,246.7,106.3z"/>
	<path class="st0" d="M349.1,145.3c-7.8,0-14-2.3-18.6-6.9c-4.6-4.6-7-10.4-7.1-17.5V82.7h8.3v37.7c0,4.6,1.7,8.5,5,11.7
		c3.3,3.3,7.4,4.9,12.4,4.9c4.6,0,8.5-1.6,11.8-4.9c3.3-3.3,5-7.2,5-11.8V82.7h8.3v38.2c-0.1,7-2.5,12.8-7.1,17.4
		C362.3,143,356.4,145.3,349.1,145.3z"/>
	<path class="st0" d="M410.3,114c-4.6-2.5-7.9-4.7-9.8-6.6c-3-3-4.6-6.6-4.6-10.9s1.5-8,4.6-11c3-3.1,6.7-4.6,10.9-4.6
		c4.3,0,7.9,1.4,10.7,4.3c2.7,2.8,4.1,6,4.1,9.6V96l-7.3,2.9c-0.5-3.9-1.4-6.5-2.6-7.8s-2.9-1.9-4.9-1.9s-3.7,0.7-5.1,2.1
		s-2.1,3.1-2.1,5.2c0,2,0.7,3.7,2.1,5.1c0.9,1,2.9,2.4,6.1,4.4c5.2,2.8,8.9,5.4,11.2,7.6c3.6,3.7,5.5,8.2,5.5,13.3
		c0,5.2-1.8,9.7-5.5,13.4s-8.1,5.5-13.3,5.5c-5.2,0-9.7-1.8-13.4-5.5c-3.7-3.7-5.5-8.1-5.5-13.3l8.2-2.1c0,4.4,1,7.6,3.1,9.7
		s4.6,3.1,7.5,3.1s5.4-1,7.5-3.1s3.2-4.6,3.2-7.6c0-2.9-1-5.5-3.1-7.5C416.5,118.2,414,116.4,410.3,114z"/>
</g>
<g>
	<path class="st1" d="M176,158.9c0,0.5-0.2,0.9-0.5,1.2s-0.7,0.5-1.2,0.5h-3.1v12.8c0,0.5-0.2,0.9-0.5,1.2s-0.7,0.5-1.2,0.5
		s-0.9-0.2-1.2-0.5s-0.5-0.7-0.5-1.2v-12.8h-3.1c-0.5,0-0.9-0.2-1.2-0.5s-0.5-0.7-0.5-1.2s0.2-0.9,0.5-1.2s0.7-0.5,1.2-0.5h9.7
		c0.5,0,0.9,0.2,1.2,0.5S176,158.4,176,158.9z"/>
	<path class="st1" d="M198.6,173.4c0,0.5-0.2,0.9-0.5,1.2c-0.4,0.4-0.8,0.5-1.2,0.5s-0.8-0.2-1.2-0.5l-5.1-5.1v3.9
		c0,0.5-0.2,0.9-0.5,1.2s-0.7,0.5-1.2,0.5s-0.9-0.2-1.2-0.5s-0.5-0.7-0.5-1.2v-14.5c0-0.5,0.2-0.9,0.5-1.2s0.7-0.5,1.2-0.5h4
		c1.6,0,3,0.6,4.1,1.7c1.1,1.1,1.7,2.5,1.7,4.1c0,1.3-0.4,2.5-1.2,3.5s-1.8,1.7-3,2.1l3.7,3.7C198.4,172.6,198.6,173,198.6,173.4z
		 M195.1,163c0-0.6-0.2-1.2-0.7-1.6s-1-0.7-1.6-0.7h-2.3v4.6h2.3c0.6,0,1.2-0.2,1.6-0.7C194.9,164.1,195.1,163.6,195.1,163z"/>
	<path class="st1" d="M227.1,173.5c0,0.5-0.2,0.9-0.5,1.2s-0.8,0.5-1.3,0.5c-0.7,0-1.2-0.3-1.5-1l-1.9-3.9h-7.5l-1.9,3.9
		c-0.3,0.6-0.8,1-1.5,1c-0.5,0-0.9-0.2-1.3-0.5s-0.5-0.7-0.5-1.2c0-0.3,0.1-0.6,0.2-0.8l7.1-14.2c0.4-0.8,1-1.3,1.7-1.3
		s1.3,0.4,1.7,1.3l7.1,14.2C227,172.9,227.1,173.2,227.1,173.5z M220.1,166.9l-2.1-4.1l-2.1,4.1H220.1z"/>
	<path class="st1" d="M242.1,173.4c0,0.5-0.2,0.9-0.5,1.2s-0.7,0.5-1.2,0.5s-0.9-0.2-1.2-0.5c-0.3-0.3-0.5-0.7-0.5-1.2v-14.5
		c0-0.5,0.2-0.9,0.5-1.2s0.7-0.5,1.2-0.5s0.9,0.2,1.2,0.5c0.3,0.3,0.5,0.7,0.5,1.2V173.4z"/>
	<path class="st1" d="M269.4,173.4c0,0.5-0.2,0.9-0.5,1.2s-0.8,0.5-1.3,0.5s-1-0.3-1.5-0.9l-8-10.3v9.5c0,0.5-0.2,0.9-0.5,1.2
		s-0.7,0.5-1.2,0.5s-0.9-0.2-1.2-0.5c-0.3-0.3-0.5-0.7-0.5-1.2v-14.5c0-0.5,0.2-0.9,0.5-1.2s0.8-0.5,1.3-0.5s1,0.3,1.5,0.9l8,10.3
		v-9.5c0-0.5,0.2-0.9,0.5-1.2s0.7-0.5,1.2-0.5s0.9,0.2,1.2,0.5c0.3,0.3,0.5,0.7,0.5,1.2V173.4z"/>
	<path class="st1" d="M285.5,173.4c0,0.5-0.2,0.9-0.5,1.2s-0.7,0.5-1.2,0.5s-0.9-0.2-1.2-0.5c-0.3-0.3-0.5-0.7-0.5-1.2v-14.5
		c0-0.5,0.2-0.9,0.5-1.2s0.7-0.5,1.2-0.5s0.9,0.2,1.2,0.5c0.3,0.3,0.5,0.7,0.5,1.2V173.4z"/>
	<path class="st1" d="M312.8,173.4c0,0.5-0.2,0.9-0.5,1.2s-0.8,0.5-1.3,0.5s-1-0.3-1.5-0.9l-8-10.3v9.5c0,0.5-0.2,0.9-0.5,1.2
		s-0.7,0.5-1.2,0.5s-0.9-0.2-1.2-0.5c-0.3-0.3-0.5-0.7-0.5-1.2v-14.5c0-0.5,0.2-0.9,0.5-1.2s0.8-0.5,1.3-0.5s1,0.3,1.5,0.9l8,10.3
		v-9.5c0-0.5,0.2-0.9,0.5-1.2s0.7-0.5,1.2-0.5s0.9,0.2,1.2,0.5c0.3,0.3,0.5,0.7,0.5,1.2V173.4z"/>
	<path class="st1" d="M340.3,161c0,0.5-0.2,0.9-0.5,1.2s-0.8,0.5-1.2,0.5c-0.4,0-0.8-0.2-1.2-0.5c-0.1-0.1-0.3-0.3-0.5-0.5
		c-1-0.8-2.1-1.2-3.4-1.2c-1.5,0-2.8,0.5-3.9,1.6s-1.6,2.4-1.6,3.9s0.5,2.8,1.6,3.9s2.4,1.6,3.9,1.6c1.3,0,2.4-0.4,3.4-1.2v-4.4
		c0-0.5,0.2-0.9,0.5-1.2s0.7-0.5,1.2-0.5s0.9,0.2,1.2,0.5c0.3,0.3,0.5,0.7,0.5,1.2v5.1c0,0.6-0.4,1.2-1.3,1.9
		c-1.7,1.3-3.5,1.9-5.6,1.9c-2.5,0-4.6-0.9-6.4-2.6s-2.6-3.9-2.6-6.4s0.9-4.6,2.6-6.4c1.7-1.7,3.9-2.6,6.4-2.6
		c2.1,0,3.9,0.6,5.6,1.9C339.8,159.8,340.3,160.4,340.3,161z"/>
	<path class="st1" d="M379.3,173.4c0,0.5-0.2,0.9-0.5,1.2s-0.7,0.5-1.2,0.5h-8.1c-0.5,0-0.9-0.2-1.2-0.5c-0.3-0.3-0.5-0.7-0.5-1.2
		v-14.5c0-0.5,0.2-0.9,0.5-1.2s0.7-0.5,1.2-0.5s0.9,0.2,1.2,0.5c0.3,0.3,0.5,0.7,0.5,1.2v12.8h6.3c0.5,0,0.9,0.2,1.2,0.5
		C379.1,172.5,379.3,172.9,379.3,173.4z"/>
	<path class="st1" d="M402.3,158.9c0,0.5-0.2,0.9-0.5,1.2s-0.7,0.5-1.2,0.5h-3.1v12.8c0,0.5-0.2,0.9-0.5,1.2s-0.7,0.5-1.2,0.5
		s-0.9-0.2-1.2-0.5c-0.3-0.3-0.5-0.7-0.5-1.2v-12.8H391c-0.5,0-0.9-0.2-1.2-0.5c-0.3-0.3-0.5-0.7-0.5-1.2s0.2-0.9,0.5-1.2
		s0.7-0.5,1.2-0.5h9.7c0.5,0,0.9,0.2,1.2,0.5C402.2,158,402.3,158.4,402.3,158.9z"/>
	<path class="st1" d="M428.9,166.2c0,2.5-0.9,4.6-2.6,6.4c-1.7,1.7-3.9,2.6-6.4,2.6h-4.8c-0.5,0-0.9-0.2-1.2-0.5
		c-0.3-0.3-0.5-0.7-0.5-1.2V159c0-0.5,0.2-0.9,0.5-1.2s0.7-0.5,1.2-0.5h4.8c2.5,0,4.6,0.9,6.4,2.6
		C428,161.6,428.9,163.7,428.9,166.2z M425.4,166.2c0-1.5-0.5-2.8-1.6-3.9c-1.1-1.1-2.4-1.6-3.9-1.6h-3.1v11.1h3.1
		c1.5,0,2.8-0.5,3.9-1.6C424.9,169,425.4,167.7,425.4,166.2z"/>
</g>
<circle class="st0" cx="75.5" cy="105.6" r="73.9"/>
<path class="st2" d="M75.3,36.6C37,36.6,6,67.6,6,105.8S37,175,75.3,175c10.1,0,19.6-2.2,28.2-6l-3.3-5c-7.6,3.3-16,5.1-24.9,5.1
	c-35,0-63.3-28.3-63.3-63.3s28.3-63.3,63.3-63.3s63.3,28.3,63.3,63.3c0,21.6-10.8,40.7-27.4,52.1l-27.4-41.5c3.9-1,7.8-3.4,11.7-7.3
	c5.6-5.6,8.4-12.4,8.4-20.3s-2.8-14.7-8.4-20.3c-4.7-4.7-10.4-7.5-17.1-8.4H54.9v86.6h7.3v-29.2h13l25.5,38.2l0,0l2.3,3.5l1.8,2.6
	l0,0l3.3,5c21.7-11.7,36.4-34.6,36.4-61C144.5,67.6,113.5,36.6,75.3,36.6z M62.2,110.3V67.4h13c5.9,0,10.9,2.1,15.1,6.3
	c4.2,4.2,6.3,9.2,6.3,15.1s-2.1,11-6.3,15.2c-4.2,4.2-9.2,6.3-15.1,6.3H62.2z"/>
</svg>
